<?xml version="1.0" standalone="no"?><!DOCTYPE svg PUBLIC "-//W3C//DTD SVG 1.1//EN" "http://www.w3.org/Graphics/SVG/1.1/DTD/svg11.dtd"><svg t="1732849420719" class="icon" viewBox="0 0 1024 1024" version="1.1" xmlns="http://www.w3.org/2000/svg" p-id="4295" xmlns:xlink="http://www.w3.org/1999/xlink" width="200" height="200"><path d="M519.904 4.896L1007.68 504.16s-50.176 67.424-124.832-12.928C808.256 410.944 519.904 122.56 519.904 122.56L106.688 517.12s-53.12 45.824-90.368-12.928L519.904 4.896zM789.664 119.648h97.504v223.84l-97.504-90.4z" fill="#1976d2" p-id="4296"></path><path d="M512 162.656l356.576 360.128v462.016s4.288 30.176-30.112 33.024c-34.464 2.88-665.76 0-665.76 0s-17.216 10.016-31.52-30.112V518.56L512 162.656zM158.4 526.24v446.944c13.632 38.272 30.048 28.704 30.048 28.704s601.344 2.784 634.144 0c32.832-2.72 28.704-31.456 28.704-31.456V530.368L511.648 187.264 158.4 526.24z" fill="#1976d2" p-id="4297"></path><path d="M628.608 646.08l-37.088-41.152 62.848-56.768c-18.816-17.184-44.864-20.288-60.224-6.016l-60.064 55.52c-15.2 14.016-14.016 39.328 0.928 59.232l-190.432 170.848a28.064 28.064 0 0 0-9.792 6.656l-0.928 1.024a27.84 27.84 0 0 0 1.28 39.328l1.12 0.928a27.264 27.264 0 0 0 34.208 2.368l0.48 0.544 201.792-180.992c18.688 16.064 43.552 18.976 58.496 5.12l60.032-55.456c14.816-13.664 13.952-38.08 0.064-57.824l-62.72 56.64z m-273.44 217.408a9.056 9.056 0 0 1-9.12-9.12 9.152 9.152 0 0 1 18.272 0 9.056 9.056 0 0 1-9.152 9.12z" fill="#1976d2" p-id="4298"></path><path d="M468.864 622.112c8.064-6.048 7.392-20.544-1.408-32l-3.104-4.032 0.352 0.416 44.192-31.616c-28.608-39.488-76.384-5.344-76.384-5.344l0.672 0.768c-7.168-4.032-14.816-4.864-20.128-0.832l-83.328 63.904 4.896 7.04a4.192 4.192 0 0 1-1.056 5.92 4.288 4.288 0 0 1-5.984-0.928l-4.704-6.752-12.608 9.664c-8 6.112-7.424 20.512 1.44 32.064l23.712 31.04c8.864 11.424 22.56 15.744 30.56 9.632l11.36-8.704-5.216-7.392a4.352 4.352 0 0 1 1.12-6.048 4.224 4.224 0 0 1 5.952 1.088l4.96 7.136 33.216-25.472 37.728 45.376 36.64-25.44-36.096-49.28 13.216-10.208z m84.736 119.84l-51.264 45.28 82.464 106.976 57.088-48.896-88.288-103.36z" fill="#1976d2" p-id="4299"></path></svg>
